<svg width="25" height="24" viewBox="0 0 25 24" fill="none" xmlns="http://www.w3.org/2000/svg">
<path d="M13.1678 14L10.1678 11M15.1782 3.5V2M19.1175 5.06066L20.1782 4M19.1175 13L20.1782 14.0607M11.1782 5.06066L10.1175 4M20.6782 9H22.1782M6.29919 20.8686L15.5364 11.6314C15.9325 11.2354 16.1305 11.0373 16.2047 10.809C16.2699 10.6082 16.2699 10.3918 16.2047 10.191C16.1305 9.96265 15.9325 9.76465 15.5364 9.36863L14.7992 8.63137C14.4032 8.23535 14.2052 8.03735 13.9768 7.96316C13.776 7.8979 13.5596 7.8979 13.3588 7.96316C13.1305 8.03735 12.9325 8.23535 12.5364 8.63137L3.29919 17.8686C2.90317 18.2646 2.70516 18.4627 2.63097 18.691C2.56572 18.8918 2.56572 19.1082 2.63097 19.309C2.70516 19.5373 2.90317 19.7354 3.29919 20.1314L4.03645 20.8686C4.43246 21.2646 4.63047 21.4627 4.8588 21.5368C5.05964 21.6021 5.27599 21.6021 5.47683 21.5368C5.70516 21.4627 5.90317 21.2646 6.29919 20.8686Z" stroke="white" stroke-width="2" stroke-linecap="round" stroke-linejoin="round"/>
</svg>
