<svg width="87" height="15" viewBox="0 0 87 15" fill="none" xmlns="http://www.w3.org/2000/svg">
<g clip-path="url(#clip0_143_70183)">
<path d="M7.15375 1.20943C7.28185 0.901442 7.71815 0.901442 7.84625 1.20943L9.39581 4.93504C9.44982 5.06487 9.57192 5.15359 9.71209 5.16482L13.7342 5.48728C14.0667 5.51393 14.2015 5.92887 13.9482 6.14587L10.8838 8.77088C10.777 8.86236 10.7303 9.0059 10.763 9.14268L11.6992 13.0676C11.7766 13.392 11.4236 13.6485 11.139 13.4746L7.69547 11.3713C7.57546 11.298 7.42454 11.298 7.30453 11.3713L3.86104 13.4746C3.57638 13.6485 3.22341 13.392 3.30081 13.0676L4.23704 9.14268C4.26967 9.0059 4.22303 8.86236 4.11623 8.77088L1.05181 6.14587C0.798483 5.92887 0.933305 5.51393 1.2658 5.48728L5.28791 5.16482C5.42808 5.15359 5.55018 5.06487 5.60419 4.93504L7.15375 1.20943Z" fill="#F0F0F0"/>
<g clip-path="url(#clip1_143_70183)">
<path d="M7.15375 1.20943C7.28185 0.901442 7.71815 0.901442 7.84625 1.20943L9.39581 4.93504C9.44982 5.06487 9.57192 5.15359 9.71209 5.16482L13.7342 5.48728C14.0667 5.51393 14.2015 5.92887 13.9482 6.14587L10.8838 8.77088C10.777 8.86236 10.7303 9.0059 10.763 9.14268L11.6992 13.0676C11.7766 13.392 11.4236 13.6485 11.139 13.4746L7.69547 11.3713C7.57546 11.298 7.42454 11.298 7.30453 11.3713L3.86104 13.4746C3.57638 13.6485 3.22341 13.392 3.30081 13.0676L4.23704 9.14268C4.26967 9.0059 4.22303 8.86236 4.11623 8.77088L1.05181 6.14587C0.798483 5.92887 0.933305 5.51393 1.2658 5.48728L5.28791 5.16482C5.42808 5.15359 5.55018 5.06487 5.60419 4.93504L7.15375 1.20943Z" fill="#EEEFEF"/>
</g>
</g>
<g clip-path="url(#clip2_143_70183)">
<path d="M25.1538 1.20943C25.2819 0.901442 25.7181 0.901442 25.8462 1.20943L27.3958 4.93504C27.4498 5.06487 27.5719 5.15359 27.7121 5.16482L31.7342 5.48728C32.0667 5.51393 32.2015 5.92887 31.9482 6.14587L28.8838 8.77088C28.777 8.86236 28.7303 9.0059 28.763 9.14268L29.6992 13.0676C29.7766 13.392 29.4236 13.6485 29.139 13.4746L25.6955 11.3713C25.5755 11.298 25.4245 11.298 25.3045 11.3713L21.861 13.4746C21.5764 13.6485 21.2234 13.392 21.3008 13.0676L22.237 9.14268C22.2697 9.0059 22.223 8.86236 22.1162 8.77088L19.0518 6.14587C18.7985 5.92887 18.9333 5.51393 19.2658 5.48728L23.2879 5.16482C23.4281 5.15359 23.5502 5.06487 23.6042 4.93504L25.1538 1.20943Z" fill="#F0F0F0"/>
<g clip-path="url(#clip3_143_70183)">
<path d="M25.1538 1.20943C25.2819 0.901442 25.7181 0.901442 25.8462 1.20943L27.3958 4.93504C27.4498 5.06487 27.5719 5.15359 27.7121 5.16482L31.7342 5.48728C32.0667 5.51393 32.2015 5.92887 31.9482 6.14587L28.8838 8.77088C28.777 8.86236 28.7303 9.0059 28.763 9.14268L29.6992 13.0676C29.7766 13.392 29.4236 13.6485 29.139 13.4746L25.6955 11.3713C25.5755 11.298 25.4245 11.298 25.3045 11.3713L21.861 13.4746C21.5764 13.6485 21.2234 13.392 21.3008 13.0676L22.237 9.14268C22.2697 9.0059 22.223 8.86236 22.1162 8.77088L19.0518 6.14587C18.7985 5.92887 18.9333 5.51393 19.2658 5.48728L23.2879 5.16482C23.4281 5.15359 23.5502 5.06487 23.6042 4.93504L25.1538 1.20943Z" fill="#EEEFEF"/>
</g>
</g>
<g clip-path="url(#clip4_143_70183)">
<path d="M43.1538 1.20943C43.2819 0.901442 43.7181 0.901442 43.8462 1.20943L45.3958 4.93504C45.4498 5.06487 45.5719 5.15359 45.7121 5.16482L49.7342 5.48728C50.0667 5.51393 50.2015 5.92887 49.9482 6.14587L46.8838 8.77088C46.777 8.86236 46.7303 9.0059 46.763 9.14268L47.6992 13.0676C47.7766 13.392 47.4236 13.6485 47.139 13.4746L43.6955 11.3713C43.5755 11.298 43.4245 11.298 43.3045 11.3713L39.861 13.4746C39.5764 13.6485 39.2234 13.392 39.3008 13.0676L40.237 9.14268C40.2697 9.0059 40.223 8.86236 40.1162 8.77088L37.0518 6.14587C36.7985 5.92887 36.9333 5.51393 37.2658 5.48728L41.2879 5.16482C41.4281 5.15359 41.5502 5.06487 41.6042 4.93504L43.1538 1.20943Z" fill="#F0F0F0"/>
<g clip-path="url(#clip5_143_70183)">
<path d="M42.7475 1.33247C42.8756 1.02449 43.3119 1.02449 43.44 1.33247L44.9896 5.05808C45.0436 5.18792 45.1657 5.27663 45.3058 5.28787L49.3279 5.61032C49.6604 5.63698 49.7953 6.05192 49.5419 6.26892L46.4775 8.89392C46.3707 8.98541 46.3241 9.12895 46.3567 9.26573L47.2929 13.1906C47.3703 13.5151 47.0174 13.7715 46.7327 13.5977L43.2892 11.4944C43.1692 11.4211 43.0183 11.4211 42.8983 11.4944L39.4548 13.5977C39.1701 13.7715 38.8172 13.5151 38.8946 13.1906L39.8308 9.26573C39.8634 9.12895 39.8168 8.98541 39.71 8.89392L36.6456 6.26892C36.3922 6.05192 36.5271 5.63698 36.8596 5.61032L40.8817 5.28787C41.0218 5.27663 41.1439 5.18792 41.1979 5.05808L42.7475 1.33247Z" fill="#EEEFEF"/>
</g>
</g>
<g clip-path="url(#clip6_143_70183)">
<path d="M61.1538 1.20943C61.2819 0.901442 61.7181 0.901442 61.8462 1.20943L63.3958 4.93504C63.4498 5.06487 63.5719 5.15359 63.7121 5.16482L67.7342 5.48728C68.0667 5.51393 68.2015 5.92887 67.9482 6.14587L64.8838 8.77088C64.777 8.86236 64.7303 9.0059 64.763 9.14268L65.6992 13.0676C65.7766 13.392 65.4236 13.6485 65.139 13.4746L61.6955 11.3713C61.5755 11.298 61.4245 11.298 61.3045 11.3713L57.861 13.4746C57.5764 13.6485 57.2234 13.392 57.3008 13.0676L58.237 9.14268C58.2697 9.0059 58.223 8.86236 58.1162 8.77088L55.0518 6.14587C54.7985 5.92887 54.9333 5.51393 55.2658 5.48728L59.2879 5.16482C59.4281 5.15359 59.5502 5.06487 59.6042 4.93504L61.1538 1.20943Z" fill="#F0F0F0"/>
<g clip-path="url(#clip7_143_70183)">
<path d="M61.1538 1.20943C61.2819 0.901442 61.7181 0.901442 61.8462 1.20943L63.3958 4.93504C63.4498 5.06487 63.5719 5.15359 63.7121 5.16482L67.7342 5.48728C68.0667 5.51393 68.2015 5.92887 67.9482 6.14587L64.8838 8.77088C64.777 8.86236 64.7303 9.0059 64.763 9.14268L65.6992 13.0676C65.7766 13.392 65.4236 13.6485 65.139 13.4746L61.6955 11.3713C61.5755 11.298 61.4245 11.298 61.3045 11.3713L57.861 13.4746C57.5764 13.6485 57.2234 13.392 57.3008 13.0676L58.237 9.14268C58.2697 9.0059 58.223 8.86236 58.1162 8.77088L55.0518 6.14587C54.7985 5.92887 54.9333 5.51393 55.2658 5.48728L59.2879 5.16482C59.4281 5.15359 59.5502 5.06487 59.6042 4.93504L61.1538 1.20943Z" fill="#EEEFEF"/>
</g>
</g>
<g clip-path="url(#clip8_143_70183)">
<path d="M79.1538 1.20943C79.2819 0.901442 79.7181 0.901442 79.8462 1.20943L81.3958 4.93504C81.4498 5.06487 81.5719 5.15359 81.7121 5.16482L85.7342 5.48728C86.0667 5.51393 86.2015 5.92887 85.9482 6.14587L82.8838 8.77088C82.777 8.86236 82.7303 9.0059 82.763 9.14268L83.6992 13.0676C83.7766 13.392 83.4236 13.6485 83.139 13.4746L79.6955 11.3713C79.5755 11.298 79.4245 11.298 79.3045 11.3713L75.861 13.4746C75.5764 13.6485 75.2234 13.392 75.3008 13.0676L76.237 9.14268C76.2697 9.0059 76.223 8.86236 76.1162 8.77088L73.0518 6.14587C72.7985 5.92887 72.9333 5.51393 73.2658 5.48728L77.2879 5.16482C77.4281 5.15359 77.5502 5.06487 77.6042 4.93504L79.1538 1.20943Z" fill="#F0F0F0"/>
<g clip-path="url(#clip9_143_70183)">
<path d="M79.1538 1.20943C79.2819 0.901442 79.7181 0.901442 79.8462 1.20943L81.3958 4.93504C81.4498 5.06487 81.5719 5.15359 81.7121 5.16482L85.7342 5.48728C86.0667 5.51393 86.2015 5.92887 85.9482 6.14587L82.8838 8.77088C82.777 8.86236 82.7303 9.0059 82.763 9.14268L83.6992 13.0676C83.7766 13.392 83.4236 13.6485 83.139 13.4746L79.6955 11.3713C79.5755 11.298 79.4245 11.298 79.3045 11.3713L75.861 13.4746C75.5764 13.6485 75.2234 13.392 75.3008 13.0676L76.237 9.14268C76.2697 9.0059 76.223 8.86236 76.1162 8.77088L73.0518 6.14587C72.7985 5.92887 72.9333 5.51393 73.2658 5.48728L77.2879 5.16482C77.4281 5.15359 77.5502 5.06487 77.6042 4.93504L79.1538 1.20943Z" fill="#EEEFEF"/>
</g>
</g>
<defs>
<clipPath id="clip0_143_70183">
<rect width="15" height="15" fill="white"/>
</clipPath>
<clipPath id="clip1_143_70183">
<rect width="15" height="15" fill="white"/>
</clipPath>
<clipPath id="clip2_143_70183">
<rect width="15" height="15" fill="white" transform="translate(18)"/>
</clipPath>
<clipPath id="clip3_143_70183">
<rect width="15" height="15" fill="white" transform="translate(18)"/>
</clipPath>
<clipPath id="clip4_143_70183">
<rect width="15" height="15" fill="white" transform="translate(36)"/>
</clipPath>
<clipPath id="clip5_143_70183">
<rect width="15" height="15" fill="white" transform="translate(36)"/>
</clipPath>
<clipPath id="clip6_143_70183">
<rect width="15" height="15" fill="white" transform="translate(54)"/>
</clipPath>
<clipPath id="clip7_143_70183">
<rect width="15" height="15" fill="white" transform="translate(54)"/>
</clipPath>
<clipPath id="clip8_143_70183">
<rect width="15" height="15" fill="white" transform="translate(72)"/>
</clipPath>
<clipPath id="clip9_143_70183">
<rect width="15" height="15" fill="white" transform="translate(72)"/>
</clipPath>
</defs>
</svg>
