<svg width="25" height="24" viewBox="0 0 25 24" fill="none" xmlns="http://www.w3.org/2000/svg">
<path d="M6.16797 6L10.668 10.5M6.16797 6H3.16797L2.16797 3L3.16797 2L6.16797 3V6ZM19.427 2.74101L16.7993 5.36863C16.4033 5.76465 16.2053 5.96265 16.1311 6.19098C16.0659 6.39183 16.0659 6.60817 16.1311 6.80902C16.2053 7.03735 16.4033 7.23535 16.7993 7.63137L17.0366 7.86863C17.4326 8.26465 17.6306 8.46265 17.859 8.53684C18.0598 8.6021 18.2761 8.6021 18.477 8.53684C18.7053 8.46265 18.9033 8.26465 19.2993 7.86863L21.7573 5.41072C22.022 6.05488 22.168 6.76039 22.168 7.5C22.168 10.5376 19.7055 13 16.668 13C16.3018 13 15.9439 12.9642 15.5977 12.8959C15.1116 12.8001 14.8685 12.7521 14.7212 12.7668C14.5645 12.7824 14.4873 12.8059 14.3485 12.8802C14.2179 12.9501 14.0869 13.081 13.825 13.343L6.66797 20.5C5.83954 21.3284 4.4964 21.3284 3.66797 20.5C2.83954 19.6716 2.83954 18.3284 3.66797 17.5L10.825 10.343C11.0869 10.081 11.2179 9.95005 11.2878 9.81949C11.3621 9.68068 11.3856 9.60347 11.4012 9.44681C11.4158 9.29945 11.3679 9.05638 11.272 8.57024C11.2038 8.22406 11.168 7.86621 11.168 7.5C11.168 4.46243 13.6304 2 16.668 2C17.6735 2 18.616 2.26982 19.427 2.74101ZM12.168 14.9999L17.668 20.4999C18.4964 21.3283 19.8395 21.3283 20.668 20.4999C21.4964 19.6715 21.4964 18.3283 20.6679 17.4999L16.1433 12.9753C15.823 12.945 15.5107 12.8872 15.2088 12.8043C14.8197 12.6975 14.3929 12.7751 14.1076 13.0603L12.168 14.9999Z" stroke="white" stroke-width="2" stroke-linecap="round" stroke-linejoin="round"/>
</svg>
