<svg width="25" height="24" viewBox="0 0 25 24" fill="none" xmlns="http://www.w3.org/2000/svg">
<path d="M17.168 10V8C17.168 5.23858 14.9294 3 12.168 3C9.40655 3 7.16797 5.23858 7.16797 8V10M12.168 14.5V16.5M8.96797 21H15.368C17.0481 21 17.8882 21 18.5299 20.673C19.0944 20.3854 19.5534 19.9265 19.841 19.362C20.168 18.7202 20.168 17.8802 20.168 16.2V14.8C20.168 13.1198 20.168 12.2798 19.841 11.638C19.5534 11.0735 19.0944 10.6146 18.5299 10.327C17.8882 10 17.0481 10 15.368 10H8.96797C7.28781 10 6.44773 10 5.806 10.327C5.24151 10.6146 4.78257 11.0735 4.49495 11.638C4.16797 12.2798 4.16797 13.1198 4.16797 14.8V16.2C4.16797 17.8802 4.16797 18.7202 4.49495 19.362C4.78257 19.9265 5.24151 20.3854 5.806 20.673C6.44773 21 7.28781 21 8.96797 21Z" stroke="white" stroke-width="2" stroke-linecap="round" stroke-linejoin="round"/>
</svg>
